<?xml version="1.0" encoding="utf-8"?>
<!-- Generator: Adobe Illustrator 19.0.0, SVG Export Plug-In . SVG Version: 6.00 Build 0)  -->
<svg version="1.1" id="Layer_1" xmlns="http://www.w3.org/2000/svg" xmlns:xlink="http://www.w3.org/1999/xlink" x="0px" y="0px"
	 viewBox="127 19 554 263" style="enable-background:new 127 19 554 263;" xml:space="preserve">
<style type="text/css">
	.st0{display:none;fill:#D3D5E0;}
	.st1{display:none;}
	.st2{fill:none;}
	.st3{fill:#3A3C4C;}
	.st4{fill:#101219;}
	.st5{fill:#22232D;}
	.st6{fill:#D9E0E8;}
	.st7{fill:none;stroke:#2C313D;stroke-width:3;stroke-miterlimit:10;}
	.st8{fill:#0F1216;}
	.st9{fill:#E24273;}
	.st10{opacity:0.13;fill:#ABB2D8;}
	.st11{fill:#F5F7FC;}
	.st12{fill:url(#SVGID_1_);}
	.st13{fill:url(#SVGID_2_);}
	.st14{opacity:0.13;fill:#FFD9E4;}
</style>
<polygon class="st0" points="681,19 680.8,20.8 680.3,24.2 679.9,27 679.3,30.8 679.2,32 679,33 542.5,98.1 537.8,100.3 493,121.7 
	492.1,122.2 465.6,134.8 461.1,136.9 461,137 461.1,137.1 461.8,137.8 463.4,139.2 484,158 504,137 533,180 542,170 545,148 
	551,153 556,175 549.6,195.2 549,197 536,214 535.3,214.9 498.8,263 498,264 498,264 521,282 440,282 480,264 480,264 480.8,263 
	529,200.9 529.7,200 532,197 532,197 531.4,196.2 530.5,194.9 505,159 481,188 434.9,146.8 434,146 434,146 374,146 327,188 
	303,159 276,197 328,264 368,282 287,282 310,264 259,197 252,175 257,153 263,148 266,170 275,180 304,137 324,158 347,137 129,33 
	127,19 315,72 374,42 434,42 493,72 493.5,71.9 497.4,70.8 507.3,68 511.2,66.9 "/>
<g class="st1">
	<rect x="404" y="19" class="st2" width="277" height="263"/>
</g>
<path class="st3" d="M681,19l-0.3,1.8l-0.5,3.4l-0.4,2.8l-0.5,3.8l-0.2,1.2l-0.2,1L575.9,82.2L544.8,97l-2.3,1.1l-4.6,2.2l-0.1,0.1
	L493,121.7l-1,0.5l-10.8,5.2l-1.9,0.9h0l-6.6,3.2l-7.1,3.4l-4.5,2.1L461,137l0.1,0.1l0.7,0.6l0.1,0.1l1.6,1.4L484,158l20-21l29,43
	l9-10l3-22l6,5l5,22l-6.4,20.2L549,197l-13,17l-0.7,0.9L498.8,263l-0.8,1l0,0l23,18h-81l40-18l0,0l0.8-1l13.1-16.9l0.7-1l34.3-44.2
	l0.7-0.9l2.3-2.9l0,0l-0.6-0.8l-0.9-1.3L505,159l-24,29l-46.1-41.2L434,146l0,0h-60l0,0l-0.9,0.8L327,188l-24-29l-25.5,35.9
	l-0.9,1.3L276,197l0,0l2.3,2.9l0.7,0.9l48.2,62.1l0.8,1l0,0l40,18h-81l23-18l0,0l-0.8-1l-36.6-48.1L272,214l-13-17l-0.6-1.8L252,175
	l5-22l6-5l3,22l9,10l29-43l20,21l20.6-18.8l1.6-1.4l0.8-0.7l0.1-0.1l-0.1-0.1l-4.5-2.1l-26.5-12.6l-1-0.5l-44.8-21.4l-4.7-2.3
	L129,33l-0.2-1l-0.2-1.2l-0.5-3.8l-1.1-8l188,53l59-30h60l59,30l0.5-0.1l4-1.1l9.8-2.8l0.1,0c0.1,0.3,0.1,0.7,0.2,1
	c0.1,0.5,0.2,0.9,0.3,1.3c0,0,0,0,0,0l3.8-1.1c0,0,0,0,0,0c-0.1-0.4-0.2-0.8-0.3-1.1c-0.1-0.4-0.2-0.8-0.3-1.2l0.2,0L681,19z"/>
<path class="st4" d="M481.3,76.2c0,0-26.5,7.1-70.5,7.5c-1.1,0-2.2,0-3.3,0l-0.1-2.4l-0.2-3.8l-0.5-12.3L406,48.7h25.5l8.3,4.6h0
	l2.8,1.5l3.8,2.1L481.3,76.2z"/>
<path class="st5" d="M679.9,27l-0.5,3.8l-0.2,1.2l-0.2,1L575.9,82.2L544.8,97l-2.3,1.1l-4.6,2.2l-0.1,0.1L493,121.7l-1,0.5
	l-10.8,5.2l-1.9,0.9h0l-6.6,3.2l-7.1,3.4l-4.5,2.1L461,137l0.1,0.1l0.7,0.6l0.1,0.1l1.6,1.4L484,158l20-21l29,43l9-10l3-22l6,5l5,22
	l-6.4,20.2L549,197l-13,17l-0.7,0.9L498.8,263l-0.8,1l0,0l23,18h-81l40-18l0,0l0.8-1l13.1-16.9l0.7-1l34.3-44.2l0.7-0.9l2.3-2.9l0,0
	l-0.6-0.8l-0.9-1.3L505,159l-24,29l-46.1-41.2L434,146l0,0h-31.9l0.7-14.7c0,0,0,0,0-0.1l0-0.5l0.8-17.5l0.4-8.8h77.3l39.2-15.3
	l4.2-1.6L679.9,27z"/>
<polygon class="st5" points="461.5,113.3 404,113.3 404,97.2 438,97.2 456.6,109.9 461,112.9 "/>
<polygon class="st4" points="493,121.7 492.1,122.2 481.1,111.3 446.8,111.3 437.2,104.5 432.6,101.3 404,101.3 404,100.3 
	432.9,100.3 438.9,104.5 447.2,110.3 481.5,110.3 487.7,116.5 488.5,117.2 "/>
<polygon class="st4" points="679.3,30.8 679.2,32 537,95.5 532.4,97.6 488.5,117.2 487.8,117.5 487.4,116.6 487.7,116.5 531.4,97 
	535.9,94.9 "/>
<polygon class="st4" points="461.8,137.8 443.4,144 442.3,144.3 434.9,146.8 434,146 457.6,138.1 461,137 461.1,137.1 461.7,137.7 
	"/>
<polygon class="st4" points="532,197 532,197 531.4,196.2 534.2,193.8 504,152.1 479,178 442.3,144.3 442,144 442.6,143.3 
	443.4,144 479,176.6 504,150.6 535.5,194 "/>
<polygon class="st4" points="498,264 498,264 480,264 480,264 480.8,263 498.8,263 "/>
<polygon class="st4" points="495.9,249.1 485.7,263 485.1,263.8 484.3,263.2 484.4,263 494.8,248.9 493.9,246.1 494.7,245.1 "/>
<polygon class="st4" points="536,214 535.3,214.9 529,200.9 529.7,200 "/>
<polygon class="st5" points="680.8,20.8 680.3,24.2 522.9,86 518.8,87.6 475.8,104.5 466.5,108.2 465.5,105.3 467.6,104.5 
	516.5,85.3 520.5,83.7 "/>
<path class="st6" d="M482.6,122c0,2.2-0.6,4-1.3,5.3c0,0.1-0.1,0.1-0.1,0.2c-2.9,5.1-10.2,8.7-19.4,10.1c-1.3,0.2-2.7,0.4-4.1,0.5
	c-2,0.2-4,0.2-6.1,0.2c0.3-0.7,0.5-1.3,0.9-1.9C458.2,126.1,476.6,122.9,482.6,122z"/>
<path class="st7" d="M448.5,138.1c0,0,3.5-15.7,34.1-18.4"/>
<path class="st8" d="M422.6,133L422.6,133c-1.1,0-1.9-0.9-1.9-1.9V124c0-1.1,0.9-1.9,1.9-1.9l0,0c1.1,0,1.9,0.9,1.9,1.9v7.1
	C424.6,132.1,423.7,133,422.6,133z"/>
<path class="st8" d="M430.4,133L430.4,133c-1.1,0-1.9-0.9-1.9-1.9V124c0-1.1,0.9-1.9,1.9-1.9l0,0c1.1,0,1.9,0.9,1.9,1.9v7.1
	C432.3,132.1,431.4,133,430.4,133z"/>
<path class="st8" d="M438.1,133L438.1,133c-1.1,0-1.9-0.9-1.9-1.9v-3.6c0-1.1,0.9-1.9,1.9-1.9l0,0c1.1,0,1.9,0.9,1.9,1.9v3.6
	C440.1,132.1,439.2,133,438.1,133z"/>
<path class="st8" d="M414.9,133L414.9,133c-1.1,0-1.9-0.9-1.9-1.9v-8.3c0-1.1,0.9-1.9,1.9-1.9l0,0c1.1,0,1.9,0.9,1.9,1.9v8.3
	C416.8,132.1,415.9,133,414.9,133z"/>
<path class="st8" d="M407.1,133L407.1,133c-1.1,0-1.9-0.9-1.9-1.9v-8.3c0-1.1,0.9-1.9,1.9-1.9l0,0c1.1,0,1.9,0.9,1.9,1.9v8.3
	C409.1,132.1,408.2,133,407.1,133z"/>
<path class="st9" d="M542.5,98.1l-4.6,2.2l-0.1,0.1c-1.7-0.8-3.5-1.8-5.4-2.8c-0.4-0.2-0.7-0.4-1.1-0.6c-3.7-2.2-7.5-4.7-10.9-7.8
	c-0.6-0.5-1.1-1-1.7-1.6c-0.8-0.8-1.5-1.5-2.3-2.3c-3.9-4.2-6.9-9.2-8.6-15l3.8-1.1c1.6,5.6,4.8,10.5,8.7,14.5
	c0.8,0.8,1.6,1.6,2.4,2.3c0.6,0.5,1.2,1,1.8,1.5c3.6,2.9,7.5,5.4,11.2,7.4c0.4,0.2,0.8,0.4,1.1,0.6c0,0,0,0,0,0
	C539,96.5,540.8,97.4,542.5,98.1z"/>
<path class="st9" d="M576.5,77.9l-0.6,4.3l-1,6.4l-0.1,0.5c-0.2,0.7-0.7,1.2-1.3,1.5l-27.2,12.1l-0.9,0.4c-0.1,0-0.2,0.1-0.3,0.1
	c-0.2,0.1-0.5,0.1-0.8,0.1c-0.4,0-0.8-0.1-1.1-0.3c-0.1,0-0.1-0.1-0.2-0.1l-5.1-2.7l-5.3-2.8l4.4-2l6.6-2.9L576.5,77.9z"/>
<polygon class="st10" points="439.8,53.3 407.2,77.5 406.7,65.2 429,48.7 431.5,48.7 "/>
<path class="st10" d="M446.3,56.9l-35.6,26.8c-1.1,0-2.2,0-3.3,0l-0.1-2.4l35.2-26.5L446.3,56.9z"/>
<path class="st11" d="M480,126.9c0.4,0.5-1.5,2.2-1.9,2.6c-2,2.3-4.9,2.7-5.4,2c-0.3-0.4,0.3-1.2,0.7-1.7
	C475.5,127,479.5,126.2,480,126.9z"/>
<circle class="st9" cx="518.1" cy="68.8" r="1.3"/>
<circle class="st9" cx="526" cy="66.4" r="1.3"/>
<circle class="st9" cx="533.4" cy="64.3" r="1.3"/>
<linearGradient id="SVGID_1_" gradientUnits="userSpaceOnUse" x1="548.6769" y1="96.3325" x2="585.7476" y2="78.7449">
	<stop  offset="0" style="stop-color:#FFFFFF;stop-opacity:0"/>
	<stop  offset="1" style="stop-color:#D615FF;stop-opacity:0.3"/>
</linearGradient>
<path class="st12" d="M576.5,77.9l-0.6,4.3l-1,6.4l-0.1,0.5c-0.2,0.7-0.7,1.2-1.3,1.5l-27.2,12.1l-1.5-5.7l-1.2-4.4L576.5,77.9z"/>
<path class="st4" d="M326.7,76.2c0,0,26.5,7.1,70.5,7.5c1.1,0,2.2,0,3.3,0l0.1-2.4l0.2-3.8l0.5-12.3l0.7-16.6h-25.5l-8.3,4.6h0
	l-2.8,1.5l-3.8,2.1L326.7,76.2z"/>
<polygon class="st5" points="405.9,146 374,146 374,146 373.1,146.8 327,188 303,159 277.5,194.9 276.6,196.2 276,197 276,197 
	278.3,200 279,200.9 327.2,263 328,264 328,264 368,282 287,282 310,264 310,264 309.3,263 272.7,214.9 272,214 259,197 
	258.4,195.2 252,175 257,153 263,148 266,170 275,180 304,137 324,158 344.6,139.2 346.2,137.8 346.9,137.1 347,137 346.9,136.9 
	342.4,134.8 315.9,122.2 315,121.7 270.2,100.3 265.5,98.1 129,33 128.8,32 128.7,30.8 128.1,27 283.3,87.6 287.5,89.2 326.7,104.5 
	404,104.5 404.4,113.3 405.2,130.8 405.2,131.3 "/>
<polygon class="st5" points="346.5,113.3 404,113.3 404,97.2 370,97.2 351.4,109.9 347,112.9 "/>
<polygon class="st4" points="315,121.7 315.9,122.2 326.9,111.3 361.2,111.3 370.8,104.5 375.4,101.3 404,101.3 404,100.3 
	375.1,100.3 369.1,104.5 360.8,110.3 326.5,110.3 "/>
<polygon class="st4" points="128.7,30.8 128.8,32 320.2,117.5 320.6,116.6 "/>
<polygon class="st4" points="346.2,137.8 373.1,146.8 374,146 347,137 346.9,137.1 "/>
<polygon class="st4" points="276,197 276,197 276.6,196.2 273.8,193.8 304,152.1 329,178 366,144 365.4,143.3 329,176.6 304,150.6 
	272.5,194 "/>
<polygon class="st4" points="310,264 310,264 328,264 328,264 327.2,263 309.3,263 "/>
<polygon class="st4" points="314.1,246.1 313.2,248.9 323.7,263.2 322.9,263.8 312.1,249.1 313.4,245.1 "/>
<polygon class="st4" points="272,214 272.7,214.9 279,200.9 278.3,200 "/>
<polygon class="st5" points="127.3,20.8 127.7,24.2 341.5,108.2 342.5,105.3 "/>
<path class="st6" d="M325.4,122c0,2.3,0.7,4.2,1.4,5.5c3.9,6.8,15.8,11.1,29.7,10.8c-0.3-0.7-0.5-1.3-0.9-1.9
	C349.8,126.1,331.4,122.9,325.4,122z"/>
<path class="st7" d="M359.5,138.1c0,0-3.5-15.7-34.1-18.4"/>
<path class="st8" d="M385.4,133L385.4,133c1.1,0,1.9-0.9,1.9-1.9V124c0-1.1-0.9-1.9-1.9-1.9l0,0c-1.1,0-1.9,0.9-1.9,1.9v7.1
	C383.4,132.1,384.3,133,385.4,133z"/>
<path class="st8" d="M377.6,133L377.6,133c1.1,0,1.9-0.9,1.9-1.9V124c0-1.1-0.9-1.9-1.9-1.9l0,0c-1.1,0-1.9,0.9-1.9,1.9v7.1
	C375.7,132.1,376.6,133,377.6,133z"/>
<path class="st8" d="M369.9,133L369.9,133c1.1,0,1.9-0.9,1.9-1.9v-3.6c0-1.1-0.9-1.9-1.9-1.9l0,0c-1.1,0-1.9,0.9-1.9,1.9v3.6
	C367.9,132.1,368.8,133,369.9,133z"/>
<path class="st8" d="M393.1,133L393.1,133c1.1,0,1.9-0.9,1.9-1.9v-8.3c0-1.1-0.9-1.9-1.9-1.9l0,0c-1.1,0-1.9,0.9-1.9,1.9v8.3
	C391.2,132.1,392.1,133,393.1,133z"/>
<path class="st8" d="M400.9,133L400.9,133c1.1,0,1.9-0.9,1.9-1.9v-8.3c0-1.1-0.9-1.9-1.9-1.9l0,0c-1.1,0-1.9,0.9-1.9,1.9v8.3
	C398.9,132.1,399.8,133,400.9,133z"/>
<path class="st9" d="M265.5,98.1l4.7,2.3c1.7-0.8,3.5-1.8,5.4-2.8c0.4-0.2,0.7-0.4,1.1-0.6c3.7-2.2,7.5-4.7,10.9-7.8
	c5.6-5,10.4-11.2,12.6-18.9l-3.8-1.1c-2.2,7.5-7.1,13.6-12.9,18.4c-3.6,2.9-7.5,5.4-11.2,7.4c-0.4,0.2-0.8,0.4-1.1,0.6
	C269.1,96.5,267.2,97.3,265.5,98.1z"/>
<path class="st9" d="M231.5,77.9l1.6,10.7l0.1,0.5c0.2,0.7,0.7,1.2,1.3,1.5l27.2,12.1l0.9,0.4c0.1,0,0.2,0.1,0.3,0.1
	c0.2,0.1,0.5,0.1,0.8,0.1c0.4,0,0.8-0.1,1.1-0.3c0.1,0,0.1-0.1,0.2-0.1l10.4-5.5l-11-4.9L231.5,77.9z"/>
<polygon class="st10" points="368.2,53.3 400.8,77.5 401.3,65.2 379,48.7 376.5,48.7 "/>
<path class="st10" d="M361.7,56.9l35.6,26.8c1.1,0,2.2,0,3.3,0l0.1-2.4l-35.2-26.5L361.7,56.9z"/>
<path class="st11" d="M328,126.9c-0.4,0.5,1.5,2.2,1.9,2.6c2,2.3,4.9,2.7,5.4,2c0.3-0.4-0.3-1.2-0.7-1.7
	C332.5,127,328.5,126.2,328,126.9z"/>
<circle class="st9" cx="289.9" cy="68.8" r="1.3"/>
<circle class="st9" cx="282" cy="66.4" r="1.3"/>
<circle class="st9" cx="274.6" cy="64.3" r="1.3"/>
<linearGradient id="SVGID_2_" gradientUnits="userSpaceOnUse" x1="548.6769" y1="96.3325" x2="585.7476" y2="78.7449" gradientTransform="matrix(-1 0 0 1 808 0)">
	<stop  offset="0" style="stop-color:#FFFFFF;stop-opacity:0"/>
	<stop  offset="1" style="stop-color:#D615FF;stop-opacity:0.3"/>
</linearGradient>
<path class="st13" d="M231.5,77.9l1.6,10.7l0.1,0.5c0.2,0.7,0.7,1.2,1.3,1.5l27.2,12.1l2.6-10.2L231.5,77.9z"/>
<path class="st14" d="M681,19l-0.3,1.8l-0.5,3.4l-0.4,2.8l-0.5,3.8l-0.2,1.2l-0.2,1L575.9,82.2l-1,6.4l-0.1,0.5
	c-0.2,0.7-0.7,1.2-1.3,1.5l-27.2,12.1l-0.9,0.4c-0.1,0-0.2,0.1-0.3,0.1c-0.2,0.1-0.5,0.1-0.8,0.1c-0.4,0-0.8-0.1-1.1-0.3
	c-0.1,0-0.1-0.1-0.2-0.1l-5.1-2.7l-0.1,0.1L493,121.7l-1,0.5l-10.8,5.2c0,0.1-0.1,0.1-0.1,0.2c-2.9,5.1-10.2,8.7-19.4,10.1l0.1,0.1
	l1.6,1.4L484,158l20-21l29,43l9-10l3-22l6,5l5,22l-6.4,20.2L549,197l-13,17l-0.7,0.9L498.8,263l-0.8,1l0,0l23,18h-81l40-18l0,0
	l0.8-1l13.1-16.9l0.7-1l34.3-44.2l0.7-0.9l2.3-2.9l0,0l-0.6-0.8l-0.9-1.3L505,159l-24,29l-46.1-41.2L434,146l0,0h-30V42h30l59,30
	l0.5-0.1l4-1.1l9.8-2.8l0.1,0c0.1,0.3,0.1,0.7,0.2,1c0.1,0.5,0.2,0.9,0.3,1.3c0,0,0,0,0,0l3.8-1.1c0,0,0,0,0,0
	c-0.1-0.4-0.2-0.8-0.3-1.1c-0.1-0.4-0.2-0.8-0.3-1.2l0.2,0L681,19z"/>
</svg>
