<?xml version="1.0" encoding="utf-8"?>
<!-- Generator: Adobe Illustrator 19.0.0, SVG Export Plug-In . SVG Version: 6.00 Build 0)  -->
<svg version="1.1" id="Layer_2" xmlns="http://www.w3.org/2000/svg" xmlns:xlink="http://www.w3.org/1999/xlink" x="0px" y="0px"
	 viewBox="-116 94.4 65.6 113.6" style="enable-background:new -116 94.4 65.6 113.6;" xml:space="preserve">
<style type="text/css">
	.st0{fill:#3A3C4C;}
	.st1{fill:#292C3A;}
	.st2{fill:#22232D;}
	.st3{fill:#101219;}
	.st4{opacity:0.13;fill:#FFD9E4;}
</style>
<polygon class="st0" points="-50.4,151.3 -50.4,182.5 -51.7,184.5 -66.4,208.1 -100,208.1 -114.7,184.5 -116,182.5 -116,151.3 
	-115.9,151.1 -115.4,149.5 -115.3,149.3 -100.7,105.4 -100.3,104.1 -100,103.3 -100,94.5 -66.4,94.5 -66.4,104.1 -66,105.4 
	-51.1,149.3 -51,149.5 -50.5,151.1 "/>
<polygon class="st1" points="-84.7,182.3 -83.2,200.3 -81.6,182.3 "/>
<polygon class="st1" points="-92.3,182.3 -88.1,200.3 -89.2,182.3 "/>
<polygon class="st1" points="-77.1,182.3 -78.4,200.3 -74,182.3 "/>
<polygon class="st1" points="-107.5,182.3 -97.8,200.3 -104.4,182.3 "/>
<polygon class="st1" points="-115.1,182.3 -102.6,200.3 -112,182.3 "/>
<polygon class="st1" points="-99.9,182.3 -93,200.3 -96.8,182.3 "/>
<polygon class="st1" points="-61.9,182.3 -68.7,200.3 -58.8,182.3 "/>
<polygon class="st1" points="-69.5,182.3 -73.5,200.3 -66.4,182.3 "/>
<polygon class="st1" points="-54.4,182.3 -63.8,200.3 -51.3,182.3 "/>
<polygon class="st1" points="-84.6,151.4 -83.2,110.2 -81.7,151.4 "/>
<polygon class="st1" points="-77,151.4 -79.5,110.2 -74.2,151.4 "/>
<polygon class="st1" points="-107.3,151.4 -94.5,110.2 -104.5,151.4 "/>
<polygon class="st1" points="-114.9,151.4 -98.2,110.2 -112,151.4 "/>
<polygon class="st1" points="-99.7,151.4 -90.7,110.2 -96.9,151.4 "/>
<polygon class="st1" points="-61.8,151.4 -72,110.2 -59,151.4 "/>
<polygon class="st1" points="-69.4,151.4 -75.7,110.2 -66.6,151.4 "/>
<polygon class="st1" points="-54.3,151.4 -68.2,110.2 -51.5,151.4 "/>
<polygon class="st1" points="-92.1,151.4 -87,110.2 -89.3,151.4 "/>
<rect x="-116" y="151.3" class="st2" width="65.6" height="31"/>
<polygon class="st2" points="-66.4,94.5 -66.4,104.1 -100.3,104.1 -100,103.3 -100,94.5 "/>
<path class="st3" d="M-109.5,177.8L-109.5,177.8c-0.8,0-1.5-0.7-1.5-1.5v-18.8c0-0.8,0.7-1.5,1.5-1.5l0,0c0.8,0,1.5,0.7,1.5,1.5
	v18.8C-108,177.1-108.7,177.8-109.5,177.8z"/>
<path class="st3" d="M-102,177.8L-102,177.8c-0.8,0-1.5-0.7-1.5-1.5v-18.8c0-0.8,0.7-1.5,1.5-1.5l0,0c0.8,0,1.5,0.7,1.5,1.5v18.8
	C-100.5,177.1-101.2,177.8-102,177.8z"/>
<path class="st3" d="M-94.5,177.8L-94.5,177.8c-0.8,0-1.5-0.7-1.5-1.5v-18.8c0-0.8,0.7-1.5,1.5-1.5l0,0c0.8,0,1.5,0.7,1.5,1.5v18.8
	C-93,177.1-93.7,177.8-94.5,177.8z"/>
<path class="st3" d="M-87.1,177.8L-87.1,177.8c-0.8,0-1.5-0.7-1.5-1.5v-18.8c0-0.8,0.7-1.5,1.5-1.5h0c0.8,0,1.5,0.7,1.5,1.5v18.8
	C-85.6,177.1-86.2,177.8-87.1,177.8z"/>
<path class="st3" d="M-79.6,177.8L-79.6,177.8c-0.8,0-1.5-0.7-1.5-1.5v-18.8c0-0.8,0.7-1.5,1.5-1.5h0c0.8,0,1.5,0.7,1.5,1.5v18.8
	C-78.1,177.1-78.7,177.8-79.6,177.8z"/>
<path class="st3" d="M-72.1,177.8L-72.1,177.8c-0.8,0-1.5-0.7-1.5-1.5v-18.8c0-0.8,0.7-1.5,1.5-1.5l0,0c0.8,0,1.5,0.7,1.5,1.5v18.8
	C-70.6,177.1-71.3,177.8-72.1,177.8z"/>
<path class="st3" d="M-64.6,177.8L-64.6,177.8c-0.8,0-1.5-0.7-1.5-1.5v-18.8c0-0.8,0.7-1.5,1.5-1.5l0,0c0.8,0,1.5,0.7,1.5,1.5v18.8
	C-63.1,177.1-63.8,177.8-64.6,177.8z"/>
<path class="st3" d="M-57.1,177.8L-57.1,177.8c-0.8,0-1.5-0.7-1.5-1.5v-18.8c0-0.8,0.7-1.5,1.5-1.5l0,0c0.8,0,1.5,0.7,1.5,1.5v18.8
	C-55.6,177.1-56.3,177.8-57.1,177.8z"/>
<g>
	<path class="st2" d="M-67.4,95.5v8.6v0.2l0.1,0.2l0.4,1.3l14.9,43.9l0.6,1.8v30.7l-1.1,1.8L-67,207.1h-32.5l-14.5-23.1l-1.1-1.8
		v-30.8l0.6-1.8l14.6-43.9l0.4-1.3l0.3-0.8l0.1-0.2v-0.2v-7.8H-67.4 M-66.4,94.5H-100v8.8l-0.3,0.8l-0.4,1.3l-14.6,43.9l-0.7,2v31.2
		l1.3,2l14.8,23.6h33.6l14.7-23.6l1.3-2v-31.2l-0.7-2L-66,105.4l-0.4-1.3V94.5L-66.4,94.5z"/>
</g>
<polygon class="st4" points="-50.4,151.3 -50.4,182.5 -51.7,184.5 -66.4,208.1 -83.3,208.1 -83.3,94.5 -66.4,94.5 -66.4,104.1 
	-66,105.4 -51.1,149.3 -51,149.5 -50.5,151.1 "/>
</svg>
